<?xml version="1.0" encoding="UTF-8"?>
<svg xmlns="http://www.w3.org/2000/svg" viewBox="0 0 422.65 99.21">
  <defs>
    <style>
      .cls-1 {
        fill: #ef482e;
      }

      .cls-1, .cls-2, .cls-3 {
        stroke-width: 0px;
      }

      .cls-2 {
        fill: #008cc9;
      }

      .cls-3 {
        fill: #ffd541;
      }
    </style>
  </defs>
  <g id="Layer_1" data-name="Layer 1">
    <polygon class="cls-2" points="316.95 99.21 316.95 0 330.92 0 369.91 48.53 408.66 0 422.65 0 422.65 99.21 393.83 99.21 393.76 60.67 369.91 89.79 346.28 60.67 346.43 99.21 316.95 99.21"/>
  </g>
  <g id="Layer_2" data-name="Layer 2">
    <polygon class="cls-1" points="0 0 0 23.27 33.56 23.27 33.56 39.4 33.56 75.47 33.56 99.21 62.4 99.21 62.4 63.05 62.4 37.09 62.4 23.36 95.87 23.36 95.87 0 0 0"/>
    <polygon class="cls-3" points="161.87 0 189.82 0 189.82 37.89 221.9 0 256.27 0 214.11 48.94 257.95 99.21 219.76 99.21 195.78 71.35 189.82 77.15 189.82 99.21 161.87 99.21 161.87 0"/>
  </g>
</svg>