<?xml version="1.0" encoding="UTF-8"?>
<svg id="Layer_1" data-name="Layer 1" xmlns="http://www.w3.org/2000/svg" viewBox="0 0 257.38 73.16">
  <defs>
    <style>
      .cls-1 {
        fill: #010101;
        fill-rule: evenodd;
        stroke-width: 0px;
      }
    </style>
  </defs>
  <path class="cls-1" d="M33.88,27c6.6,5.2,13.2,10.3,17,17.2,2.4,4.3,3.5,9.2,3.2,13.7-.2,2.7-.9,5.4-2.1,7.6-1.3,2.3-3.1,4.2-5.5,5.6-2.6,1.5-5.8,2.2-9.8,2-3.4-.2-6.6-1.3-9.6-3.1-3,1.8-6.3,2.9-9.6,3.1-3.9.3-7.2-.5-9.8-1.9-2.4-1.4-4.3-3.3-5.5-5.6-1.2-2.3-1.9-4.9-2.1-7.6-.4-4.5.7-9.4,3.1-13.8,3.8-6.9,10.4-12.1,17-17.2,1.3-1,2.5-2,3.8-3-3.3-3.1-6.6-6.1-7.7-10.7-.6-2.6-.3-4.9.6-6.8s2.4-3.5,4-4.6c1.9-1.3,4-1.9,6.2-1.9s4.2.6,6.2,1.9c1.6,1.1,3.1,2.6,4,4.6s1.2,4.3.6,6.8c-.9,3.7-3.2,6.3-5.8,8.8l-3-2.4c2.2-2.1,4.3-4.3,5.1-7.3.4-1.6.2-3.1-.4-4.3-.6-1.2-1.5-2.2-2.6-3-1.3-.9-2.7-1.3-4-1.3-1.4,0-2.7.4-4,1.3-1.1.7-2.1,1.7-2.6,3-.6,1.2-.8,2.6-.4,4.3.9,3.5,3.7,6.1,6.3,8.5,2.3,2.1,4.9,4.2,7.4,6.1h0ZM30.08,62.6c3-3.2,7.9-8,5.4-19.3-5.2,2.5-7.4,8.1-8.1,12.4-.1.5-.6.5-.7,0-.7-4.2-2.9-9.9-8.1-12.4-2.5,11.3,2.4,16.1,5.4,19.3l.8.8c-.9.7-2.1,1.4-3.4,2l-.1-.2c-4.6-4.8-10.3-12.2-5.3-26.1,3.2-.3,8.9,2,11.1,7.2,2.2-5.2,7.9-7.5,11.1-7.2,5,13.9-.7,21.4-5.3,26.2-.7.8-1.5,1.5-2.3,2.2,2,1,4.2,1.6,6.4,1.8,3.2.2,5.7-.4,7.7-1.5h0c1.8-1,3.1-2.4,4-4.1,1-1.8,1.5-3.8,1.6-6,.2-3.8-.7-7.9-2.7-11.6h0c-3.5-6.2-9.7-11.1-16.1-16.1-1.5-1.2-3-2.3-4.5-3.5-1.5,1.2-3,2.4-4.5,3.5-6.2,5-12.5,9.8-15.9,16.1h0c-2,3.7-3,7.8-2.7,11.6.1,2.2.7,4.2,1.6,6,.9,1.7,2.3,3.1,4,4.1h0c2,1.1,4.5,1.7,7.7,1.5,5-.4,9.6-3.2,12.9-6.7Z"/>
  <path class="cls-1" d="M83.18,48l-5.9-6.6c3.1-.2,5.2-2.1,5.2-4.9,0-3-2.2-4.9-5.6-4.9h-7.7v16.4h2.5v-6.5h2.4l5.8,6.5h3.3ZM71.68,39.1v-5.1h5.1c1.8,0,3,1,3,2.6,0,1.5-1.2,2.5-3,2.5h-5.1ZM97.68,45.6h-9.6v-4.7h8.8v-2.3h-8.8v-4.6h9.6v-2.4h-12.2v16.4h12.2v-2.4h0ZM100.98,31.6v16.4h2.6v-5.8h4.8c3.6,0,5.9-2.2,5.9-5.3s-2.3-5.3-5.9-5.3h-7.4ZM103.68,39.8v-5.8h4.8c2.1,0,3.3,1.2,3.3,2.9,0,1.8-1.2,2.9-3.3,2.9h-4.8ZM131.18,48l-5.9-6.6c3.1-.2,5.2-2.1,5.2-4.9,0-3-2.2-4.9-5.6-4.9h-7.7v16.4h2.6v-6.5h2.4l5.8,6.5h3.2ZM119.68,39.1v-5.1h5.1c1.8,0,3,1,3,2.6,0,1.5-1.2,2.5-3,2.5h-5.1ZM140.98,31.2c-4.8,0-8.5,3.8-8.5,8.6s3.7,8.5,8.5,8.5,8.6-3.8,8.6-8.5c0-4.8-3.8-8.6-8.6-8.6h0ZM140.98,45.8c-3.3,0-5.9-2.6-5.9-6s2.6-6.1,5.9-6.1,5.9,2.6,5.9,6.1c.1,3.4-2.5,6-5.9,6h0ZM152.68,31.6v16.4h5.7c5.6,0,9-3.4,9-8.2s-3.5-8.2-9-8.2h-5.7ZM155.28,45.6v-11.7h3.1c4,0,6.4,2.4,6.4,5.8s-2.4,5.8-6.4,5.8h-3.1v.1ZM184.28,31.6h-2.6v9.1c0,3-1.7,5.1-4.3,5.1s-4.4-2-4.4-5.1v-9.1h-2.6v9.1c0,4.5,2.8,7.6,7.1,7.6s6.9-3.1,6.9-7.6v-9.1h-.1ZM195.78,45.8c-3.3,0-5.9-2.6-5.9-6.1s2.6-6.1,5.9-6.1c2.6,0,4.7,1.4,5.4,4.1l2.5-.6c-.9-3.6-4.1-5.9-7.9-5.9-4.8,0-8.5,3.8-8.5,8.5s3.8,8.5,8.5,8.5c3.9,0,7-2.2,7.9-6.1l-2.5-.5c-.7,2.9-2.8,4.2-5.4,4.2h0ZM218.88,33.9v-2.4h-14.2v2.4h5.7v14h2.6v-14h5.9ZM223.98,48v-16.4h-2.6v16.4h2.6ZM242.98,31.6h-2.9l-5.5,12.8-5.5-12.8h-2.9l7.1,16.4h2.5l7.2-16.4h0ZM257.38,45.6h-9.6v-4.7h8.8v-2.3h-8.8v-4.6h9.6v-2.4h-12.2v16.4h12.2v-2.4h0Z"/>
  <path class="cls-1" d="M73.38,59.7v1.3h3.6c-.3,1.6-1.5,2.7-3.1,2.7-1.9,0-3.3-1.5-3.3-3.4s1.4-3.4,3.3-3.4c1.2,0,2.4.5,3,1.8l1.3-.5c-.7-1.8-2.4-2.7-4.3-2.7-2.7,0-4.8,2.1-4.8,4.8s2.1,4.7,4.8,4.7,4.6-2.1,4.6-4.7v-.6h-5.1ZM86.68,58.1h-1.6l-2.2,4.9-2-4.9h-1.6l2.9,6.6-1.1,2.5h1.6l4-9.1h0ZM91.78,57.9c-1,0-1.8.4-2.3,1v-.8h-1.4v6.8h1.4v-3.1c0-1.7.8-2.5,2-2.5,1,0,1.6.7,1.6,1.8v3.8h1.4v-4.1c0-1.7-1.1-2.9-2.7-2.9h0ZM102.68,61.3c-.1-2-1.6-3.4-3.4-3.4-1.9,0-3.5,1.4-3.5,3.6s1.6,3.5,3.4,3.5c1.5,0,2.7-.7,3.3-2.1l-1.3-.3c-.5,1-1.2,1.2-2,1.2-1,0-1.9-.8-2-2h5.5v-.5h0ZM99.28,59.2c.9,0,1.7.5,1.9,1.6h-4c.3-1.1,1.3-1.6,2.1-1.6h0ZM107.28,63.7c-1.2,0-2.2-.9-2.2-2.3,0-1.3.9-2.3,2.2-2.3.9,0,1.7.5,1.9,1.5l1.4-.4c-.4-1.4-1.8-2.4-3.3-2.4-1.9,0-3.6,1.5-3.6,3.6s1.6,3.6,3.6,3.6c1.6,0,2.9-.9,3.3-2.4l-1.3-.3c-.4,1-1.1,1.4-2,1.4h0ZM115.18,57.9c-2,0-3.6,1.4-3.6,3.5s1.6,3.5,3.6,3.5,3.6-1.4,3.6-3.5-1.6-3.5-3.6-3.5h0ZM115.18,63.8c-1.2,0-2.2-.9-2.2-2.3s1.1-2.3,2.2-2.3c1.2,0,2.2.9,2.2,2.3s-1.1,2.3-2.2,2.3h0ZM121.78,64.8v-9.8h-1.4v9.8h1.4ZM126.98,57.9c-2,0-3.6,1.4-3.6,3.5s1.6,3.5,3.6,3.5,3.6-1.4,3.6-3.5c0-2-1.6-3.5-3.6-3.5h0ZM126.98,63.8c-1.2,0-2.2-.9-2.2-2.3s1.1-2.3,2.2-2.3c1.2,0,2.2.9,2.2,2.3s-1.1,2.3-2.2,2.3h0ZM138.58,58.1h-1.4v.7c-.5-.5-1.3-.8-2.3-.8-1.7,0-3.3,1.4-3.3,3.3s1.6,3.3,3.3,3.3c1,0,1.8-.3,2.3-.8v.4c0,1.3-.8,2.1-2.1,2.1-1.1,0-1.6-.4-2.1-1.2l-1.2.9c.5,1,1.7,1.6,3.3,1.6,2.1,0,3.5-1.2,3.5-3.2v-6.3h0ZM135.08,63.2c-1.2,0-2.2-.8-2.2-2.1s1-2.1,2.2-2.1c1.1,0,2.1.8,2.1,2.1s-1,2.1-2.1,2.1h0ZM147.28,58.1h-1.6l-2.2,4.9-2.1-4.9h-1.6l2.9,6.6-1.1,2.5h1.6l4.1-9.1h0ZM159.28,65.2l.8-1-1.5-1.2c.3-.6.5-1.3.5-2.2v-.7h-1.3v.7c0,.5-.1.9-.2,1.3l-2.1-1.8c-1.2-1-1.6-1.5-1.6-2.2,0-.8.6-1.3,1.4-1.3s1.4.4,1.5,1.6l1.3-.2c-.2-1.5-1.2-2.5-2.8-2.5s-2.8,1-2.8,2.5c0,.7.2,1.3.7,1.9-1,.5-1.6,1.3-1.6,2.4,0,1.7,1.4,2.8,3.5,2.8,1.1,0,2.1-.4,2.8-1l1.4.9h0ZM155.08,63.8c-1.3,0-2.1-.6-2.1-1.6,0-.6.4-1.2,1.1-1.5l.3.2,2.6,2.2c-.6.5-1.2.7-1.9.7h0ZM166.28,64.8v-9.1h-1.5v9.1h1.5ZM172.18,57.9c-1,0-1.8.4-2.3,1v-.8h-1.4v6.8h1.4v-3.1c0-1.7.8-2.5,2-2.5,1,0,1.6.7,1.6,1.8v3.8h1.4v-4.1c0-1.7-1-2.9-2.7-2.9h0ZM180.88,59.3v-1.2h-2.2v-.8c0-.7.5-1.2,1.2-1.2.2,0,.5,0,.7.1l.3-1.2c-.4-.2-.7-.2-1.2-.2-1.5,0-2.5.9-2.5,2.4v.9h-1.1v1.2h1.1v5.6h1.4v-5.6h2.3ZM188.08,61.3c-.1-2-1.6-3.4-3.4-3.4-1.9,0-3.5,1.4-3.5,3.6s1.6,3.5,3.4,3.5c1.5,0,2.7-.7,3.3-2.1l-1.3-.3c-.5,1-1.2,1.2-2,1.2-1,0-1.9-.8-2-2h5.5v-.5h0ZM184.68,59.2c.9,0,1.7.5,1.9,1.6h-4c.3-1.1,1.2-1.6,2.1-1.6h0ZM193.58,58c-1.2,0-2,.6-2.6,1.5v-1.4h-1.3v6.8h1.4v-2.4c0-1.9.8-3,2.6-3h.4l.1-1.4c-.3-.1-.4-.1-.6-.1h0ZM199.58,63.3c-.4.2-.8.4-1.1.4-.7,0-1.1-.4-1.1-1.2v-3.2h2.3v-1.2h-2.3v-2.1h-1.4v2.1h-1.5v1.2h1.5v3.3c0,1.7,1,2.5,2.4,2.5.6,0,1-.1,1.7-.5l-.5-1.3h0ZM201.98,55.2c-.5,0-.9.4-.9.9s.4.9.9.9.9-.4.9-.9-.4-.9-.9-.9h0ZM202.68,64.8v-6.7h-1.4v6.8h1.4v-.1ZM206.28,64.8v-9.8h-1.4v9.8h1.4ZM209.28,55.2c-.5,0-.9.4-.9.9s.4.9.9.9.9-.4.9-.9-.4-.9-.9-.9h0ZM209.98,64.8v-6.7h-1.4v6.8h1.4v-.1ZM216.28,63.3c-.4.2-.8.4-1.1.4-.7,0-1.1-.4-1.1-1.2v-3.2h2.3v-1.2h-2.3v-2.1h-1.4v2.1h-1.5v1.2h1.5v3.3c0,1.7,1,2.5,2.4,2.5.6,0,1-.1,1.7-.5l-.5-1.3h0ZM224.38,58.1h-1.6l-2.2,4.9-2.1-4.9h-1.6l2.9,6.6-1.1,2.5h1.6l4.1-9.1Z"/>
</svg>